<mxfile host="app.diagrams.net" agent="Mozilla/5.0 (Windows NT 10.0; Win64; x64) AppleWebKit/537.36 (KHTML, like Gecko) Chrome/131.0.0.0 Safari/537.36" version="24.9.3" pages="6">
  <diagram id="8tC26ClsEo2-Co0cVKbt" name="Admin">
    <mxGraphModel dx="2228" dy="1318" grid="1" gridSize="10" guides="1" tooltips="1" connect="1" arrows="1" fold="1" page="1" pageScale="1" pageWidth="1169" pageHeight="827" math="0" shadow="0">
      <root>
        <mxCell id="0" />
        <mxCell id="1" parent="0" />
        <mxCell id="JwMqxQmt_Y56D5Njat_4-2" value="" style="shape=ellipse;fillColor=#0065FF;strokeColor=none;html=1;sketch=0;" parent="1" vertex="1">
          <mxGeometry x="834" y="30" width="10" height="10" as="geometry" />
        </mxCell>
        <mxCell id="JwMqxQmt_Y56D5Njat_4-5" value="Admin" style="swimlane;whiteSpace=wrap;html=1;startSize=23;" parent="1" vertex="1">
          <mxGeometry x="325" y="40" width="310" height="778" as="geometry" />
        </mxCell>
        <mxCell id="JwMqxQmt_Y56D5Njat_4-1" style="rounded=0;orthogonalLoop=1;jettySize=auto;html=1;entryX=0.5;entryY=0;entryDx=0;entryDy=0;" parent="JwMqxQmt_Y56D5Njat_4-5" target="JwMqxQmt_Y56D5Njat_4-6" edge="1">
          <mxGeometry relative="1" as="geometry">
            <mxPoint x="505" y="158" as="targetPoint" />
            <mxPoint x="100" y="128" as="sourcePoint" />
          </mxGeometry>
        </mxCell>
        <mxCell id="JwMqxQmt_Y56D5Njat_4-33" style="edgeStyle=orthogonalEdgeStyle;rounded=0;orthogonalLoop=1;jettySize=auto;html=1;exitX=0.5;exitY=1;exitDx=0;exitDy=0;entryX=0.5;entryY=0;entryDx=0;entryDy=0;" parent="JwMqxQmt_Y56D5Njat_4-5" source="JwMqxQmt_Y56D5Njat_4-6" target="JwMqxQmt_Y56D5Njat_4-29" edge="1">
          <mxGeometry relative="1" as="geometry" />
        </mxCell>
        <mxCell id="JwMqxQmt_Y56D5Njat_4-6" value="Dashboard admin" style="rounded=0;whiteSpace=wrap;html=1;" parent="JwMqxQmt_Y56D5Njat_4-5" vertex="1">
          <mxGeometry x="95" y="94" width="120" height="60" as="geometry" />
        </mxCell>
        <mxCell id="JwMqxQmt_Y56D5Njat_4-34" style="edgeStyle=orthogonalEdgeStyle;rounded=0;orthogonalLoop=1;jettySize=auto;html=1;exitX=0.5;exitY=1;exitDx=0;exitDy=0;entryX=0.5;entryY=0;entryDx=0;entryDy=0;" parent="JwMqxQmt_Y56D5Njat_4-5" source="JwMqxQmt_Y56D5Njat_4-29" target="JwMqxQmt_Y56D5Njat_4-30" edge="1">
          <mxGeometry relative="1" as="geometry" />
        </mxCell>
        <mxCell id="HoKs1ZrWleaflu1vSMU4-5" style="edgeStyle=orthogonalEdgeStyle;rounded=0;orthogonalLoop=1;jettySize=auto;html=1;exitX=0.5;exitY=1;exitDx=0;exitDy=0;entryX=0.5;entryY=0;entryDx=0;entryDy=0;" edge="1" parent="JwMqxQmt_Y56D5Njat_4-5" source="JwMqxQmt_Y56D5Njat_4-29" target="HoKs1ZrWleaflu1vSMU4-3">
          <mxGeometry relative="1" as="geometry" />
        </mxCell>
        <mxCell id="JwMqxQmt_Y56D5Njat_4-29" value="Pilih jenis manajemen" style="rounded=0;whiteSpace=wrap;html=1;" parent="JwMqxQmt_Y56D5Njat_4-5" vertex="1">
          <mxGeometry x="95" y="194" width="120" height="60" as="geometry" />
        </mxCell>
        <mxCell id="HoKs1ZrWleaflu1vSMU4-9" style="edgeStyle=orthogonalEdgeStyle;rounded=0;orthogonalLoop=1;jettySize=auto;html=1;exitX=0.5;exitY=1;exitDx=0;exitDy=0;entryX=0.5;entryY=0;entryDx=0;entryDy=0;" edge="1" parent="JwMqxQmt_Y56D5Njat_4-5" source="JwMqxQmt_Y56D5Njat_4-30" target="HoKs1ZrWleaflu1vSMU4-8">
          <mxGeometry relative="1" as="geometry" />
        </mxCell>
        <mxCell id="JwMqxQmt_Y56D5Njat_4-30" value="Dashbiard Kelola Kehadiran" style="rounded=0;whiteSpace=wrap;html=1;" parent="JwMqxQmt_Y56D5Njat_4-5" vertex="1">
          <mxGeometry x="20" y="292" width="120" height="60" as="geometry" />
        </mxCell>
        <mxCell id="HoKs1ZrWleaflu1vSMU4-3" value="Dashboard Kelola Pegawai" style="rounded=0;whiteSpace=wrap;html=1;" vertex="1" parent="JwMqxQmt_Y56D5Njat_4-5">
          <mxGeometry x="170" y="292" width="120" height="60" as="geometry" />
        </mxCell>
        <mxCell id="HoKs1ZrWleaflu1vSMU4-11" value="Yes" style="edgeStyle=orthogonalEdgeStyle;rounded=0;orthogonalLoop=1;jettySize=auto;html=1;exitX=0.5;exitY=1;exitDx=0;exitDy=0;entryX=0.5;entryY=0;entryDx=0;entryDy=0;" edge="1" parent="JwMqxQmt_Y56D5Njat_4-5" source="HoKs1ZrWleaflu1vSMU4-8" target="HoKs1ZrWleaflu1vSMU4-10">
          <mxGeometry relative="1" as="geometry" />
        </mxCell>
        <mxCell id="HoKs1ZrWleaflu1vSMU4-19" value="No" style="edgeStyle=orthogonalEdgeStyle;rounded=0;orthogonalLoop=1;jettySize=auto;html=1;exitX=1;exitY=0.5;exitDx=0;exitDy=0;entryX=0;entryY=0.5;entryDx=0;entryDy=0;" edge="1" parent="JwMqxQmt_Y56D5Njat_4-5" source="HoKs1ZrWleaflu1vSMU4-8" target="HoKs1ZrWleaflu1vSMU4-18">
          <mxGeometry relative="1" as="geometry" />
        </mxCell>
        <mxCell id="HoKs1ZrWleaflu1vSMU4-8" value="Pegawai Cuti ?" style="rhombus;whiteSpace=wrap;html=1;" vertex="1" parent="JwMqxQmt_Y56D5Njat_4-5">
          <mxGeometry x="40" y="408" width="80" height="80" as="geometry" />
        </mxCell>
        <mxCell id="HoKs1ZrWleaflu1vSMU4-13" value="No" style="edgeStyle=orthogonalEdgeStyle;rounded=0;orthogonalLoop=1;jettySize=auto;html=1;exitX=0.5;exitY=1;exitDx=0;exitDy=0;entryX=0.5;entryY=0;entryDx=0;entryDy=0;" edge="1" parent="JwMqxQmt_Y56D5Njat_4-5" source="HoKs1ZrWleaflu1vSMU4-10" target="HoKs1ZrWleaflu1vSMU4-12">
          <mxGeometry relative="1" as="geometry" />
        </mxCell>
        <mxCell id="HoKs1ZrWleaflu1vSMU4-16" value="Yes" style="edgeStyle=orthogonalEdgeStyle;rounded=0;orthogonalLoop=1;jettySize=auto;html=1;exitX=1;exitY=0.5;exitDx=0;exitDy=0;entryX=0;entryY=0.5;entryDx=0;entryDy=0;" edge="1" parent="JwMqxQmt_Y56D5Njat_4-5" source="HoKs1ZrWleaflu1vSMU4-10" target="HoKs1ZrWleaflu1vSMU4-15">
          <mxGeometry relative="1" as="geometry" />
        </mxCell>
        <mxCell id="HoKs1ZrWleaflu1vSMU4-10" value="Syarat memenuhi ?" style="rhombus;whiteSpace=wrap;html=1;" vertex="1" parent="JwMqxQmt_Y56D5Njat_4-5">
          <mxGeometry x="40" y="528" width="80" height="80" as="geometry" />
        </mxCell>
        <mxCell id="HoKs1ZrWleaflu1vSMU4-12" value="Cuti ditolak" style="rounded=0;whiteSpace=wrap;html=1;" vertex="1" parent="JwMqxQmt_Y56D5Njat_4-5">
          <mxGeometry x="20" y="641" width="120" height="60" as="geometry" />
        </mxCell>
        <mxCell id="HoKs1ZrWleaflu1vSMU4-15" value="Cuti diizinkan" style="rounded=0;whiteSpace=wrap;html=1;" vertex="1" parent="JwMqxQmt_Y56D5Njat_4-5">
          <mxGeometry x="160" y="538" width="120" height="60" as="geometry" />
        </mxCell>
        <mxCell id="HoKs1ZrWleaflu1vSMU4-18" value="Mengisi Kehadiran" style="rounded=0;whiteSpace=wrap;html=1;" vertex="1" parent="JwMqxQmt_Y56D5Njat_4-5">
          <mxGeometry x="160" y="418" width="120" height="60" as="geometry" />
        </mxCell>
        <mxCell id="JwMqxQmt_Y56D5Njat_4-8" value="Sistem" style="swimlane;whiteSpace=wrap;html=1;startSize=23;" parent="1" vertex="1">
          <mxGeometry x="635" y="40" width="200" height="778" as="geometry" />
        </mxCell>
        <mxCell id="bnMTrPnuzwXsN6VNcULX-1" value="Menampilkan data" style="rounded=0;whiteSpace=wrap;html=1;" parent="JwMqxQmt_Y56D5Njat_4-8" vertex="1">
          <mxGeometry x="40" y="94" width="120" height="60" as="geometry" />
        </mxCell>
        <mxCell id="HoKs1ZrWleaflu1vSMU4-2" style="edgeStyle=orthogonalEdgeStyle;rounded=0;orthogonalLoop=1;jettySize=auto;html=1;exitX=0.5;exitY=1;exitDx=0;exitDy=0;entryX=0.5;entryY=0;entryDx=0;entryDy=0;" edge="1" parent="JwMqxQmt_Y56D5Njat_4-8" source="1XRgQqs-UzZ-bd271j_c-1" target="bnMTrPnuzwXsN6VNcULX-1">
          <mxGeometry relative="1" as="geometry" />
        </mxCell>
        <mxCell id="1XRgQqs-UzZ-bd271j_c-1" value="" style="ellipse;html=1;shape=startState;fillColor=#000000;strokeColor=#ff0000;" parent="JwMqxQmt_Y56D5Njat_4-8" vertex="1">
          <mxGeometry x="85" y="34" width="30" height="30" as="geometry" />
        </mxCell>
        <mxCell id="LnSdKz31B7EaTyvjlN93-15" value="Admin" style="text;html=1;align=center;verticalAlign=middle;whiteSpace=wrap;rounded=0;" parent="1" vertex="1">
          <mxGeometry x="507" y="10" width="128" height="30" as="geometry" />
        </mxCell>
        <mxCell id="HoKs1ZrWleaflu1vSMU4-1" style="edgeStyle=orthogonalEdgeStyle;rounded=0;orthogonalLoop=1;jettySize=auto;html=1;exitX=0;exitY=0.5;exitDx=0;exitDy=0;entryX=1;entryY=0.5;entryDx=0;entryDy=0;" edge="1" parent="1" source="bnMTrPnuzwXsN6VNcULX-1" target="JwMqxQmt_Y56D5Njat_4-6">
          <mxGeometry relative="1" as="geometry" />
        </mxCell>
        <mxCell id="HoKs1ZrWleaflu1vSMU4-7" value="Yes" style="edgeStyle=orthogonalEdgeStyle;rounded=0;orthogonalLoop=1;jettySize=auto;html=1;exitX=1;exitY=0.5;exitDx=0;exitDy=0;entryX=1;entryY=0.5;entryDx=0;entryDy=0;" edge="1" parent="1" source="JwMqxQmt_Y56D5Njat_4-31" target="HoKs1ZrWleaflu1vSMU4-3">
          <mxGeometry relative="1" as="geometry" />
        </mxCell>
        <mxCell id="JwMqxQmt_Y56D5Njat_4-31" value="Data yang dibutuhkan kurang?" style="rhombus;whiteSpace=wrap;html=1;" parent="1" vertex="1">
          <mxGeometry x="695" y="447" width="80" height="80" as="geometry" />
        </mxCell>
        <mxCell id="X3InqvPKM0cEjv3Upuoj-2" value="Yes" style="edgeStyle=orthogonalEdgeStyle;rounded=0;orthogonalLoop=1;jettySize=auto;html=1;exitX=0.5;exitY=1;exitDx=0;exitDy=0;entryX=0.5;entryY=0;entryDx=0;entryDy=0;" parent="1" source="JwMqxQmt_Y56D5Njat_4-36" target="X3InqvPKM0cEjv3Upuoj-1" edge="1">
          <mxGeometry relative="1" as="geometry" />
        </mxCell>
        <mxCell id="HoKs1ZrWleaflu1vSMU4-21" value="No" style="edgeStyle=orthogonalEdgeStyle;rounded=0;orthogonalLoop=1;jettySize=auto;html=1;exitX=0;exitY=0.5;exitDx=0;exitDy=0;entryX=1;entryY=0.5;entryDx=0;entryDy=0;" edge="1" parent="1" source="JwMqxQmt_Y56D5Njat_4-36" target="HoKs1ZrWleaflu1vSMU4-3">
          <mxGeometry relative="1" as="geometry" />
        </mxCell>
        <mxCell id="JwMqxQmt_Y56D5Njat_4-36" value="Data valid?" style="rhombus;whiteSpace=wrap;html=1;" parent="1" vertex="1">
          <mxGeometry x="695" y="557" width="80" height="80" as="geometry" />
        </mxCell>
        <mxCell id="JwMqxQmt_Y56D5Njat_4-37" value="No" style="edgeStyle=orthogonalEdgeStyle;rounded=0;orthogonalLoop=1;jettySize=auto;html=1;exitX=0.5;exitY=1;exitDx=0;exitDy=0;entryX=0.5;entryY=0;entryDx=0;entryDy=0;" parent="1" source="JwMqxQmt_Y56D5Njat_4-31" target="JwMqxQmt_Y56D5Njat_4-36" edge="1">
          <mxGeometry relative="1" as="geometry" />
        </mxCell>
        <mxCell id="X3InqvPKM0cEjv3Upuoj-7" style="edgeStyle=orthogonalEdgeStyle;rounded=0;orthogonalLoop=1;jettySize=auto;html=1;exitX=0.5;exitY=1;exitDx=0;exitDy=0;entryX=0.5;entryY=0;entryDx=0;entryDy=0;" parent="1" source="X3InqvPKM0cEjv3Upuoj-1" target="X3InqvPKM0cEjv3Upuoj-5" edge="1">
          <mxGeometry relative="1" as="geometry" />
        </mxCell>
        <mxCell id="X3InqvPKM0cEjv3Upuoj-1" value="Simpan data" style="rounded=0;whiteSpace=wrap;html=1;" parent="1" vertex="1">
          <mxGeometry x="675" y="681" width="120" height="60" as="geometry" />
        </mxCell>
        <mxCell id="X3InqvPKM0cEjv3Upuoj-5" value="" style="ellipse;html=1;shape=endState;fillColor=#000000;strokeColor=#ff0000;" parent="1" vertex="1">
          <mxGeometry x="720" y="761" width="30" height="30" as="geometry" />
        </mxCell>
        <mxCell id="HoKs1ZrWleaflu1vSMU4-6" style="edgeStyle=orthogonalEdgeStyle;rounded=0;orthogonalLoop=1;jettySize=auto;html=1;exitX=0.5;exitY=1;exitDx=0;exitDy=0;entryX=0.5;entryY=0;entryDx=0;entryDy=0;" edge="1" parent="1" source="HoKs1ZrWleaflu1vSMU4-3" target="JwMqxQmt_Y56D5Njat_4-31">
          <mxGeometry relative="1" as="geometry" />
        </mxCell>
        <mxCell id="HoKs1ZrWleaflu1vSMU4-14" style="edgeStyle=orthogonalEdgeStyle;rounded=0;orthogonalLoop=1;jettySize=auto;html=1;exitX=1;exitY=0.5;exitDx=0;exitDy=0;entryX=0;entryY=0.5;entryDx=0;entryDy=0;" edge="1" parent="1" source="HoKs1ZrWleaflu1vSMU4-12" target="X3InqvPKM0cEjv3Upuoj-1">
          <mxGeometry relative="1" as="geometry" />
        </mxCell>
        <mxCell id="HoKs1ZrWleaflu1vSMU4-17" style="edgeStyle=orthogonalEdgeStyle;rounded=0;orthogonalLoop=1;jettySize=auto;html=1;exitX=0.5;exitY=1;exitDx=0;exitDy=0;entryX=0;entryY=0.5;entryDx=0;entryDy=0;" edge="1" parent="1" source="HoKs1ZrWleaflu1vSMU4-15" target="X3InqvPKM0cEjv3Upuoj-1">
          <mxGeometry relative="1" as="geometry" />
        </mxCell>
        <mxCell id="HoKs1ZrWleaflu1vSMU4-20" style="edgeStyle=orthogonalEdgeStyle;rounded=0;orthogonalLoop=1;jettySize=auto;html=1;exitX=1;exitY=0.5;exitDx=0;exitDy=0;entryX=0;entryY=0.5;entryDx=0;entryDy=0;" edge="1" parent="1" source="HoKs1ZrWleaflu1vSMU4-18" target="X3InqvPKM0cEjv3Upuoj-1">
          <mxGeometry relative="1" as="geometry">
            <Array as="points">
              <mxPoint x="625" y="488" />
              <mxPoint x="625" y="711" />
            </Array>
          </mxGeometry>
        </mxCell>
      </root>
    </mxGraphModel>
  </diagram>
  <diagram id="e9x-ypCDZqfsR1Ki2qau" name="Master/Manager">
    <mxGraphModel dx="1485" dy="879" grid="1" gridSize="10" guides="1" tooltips="1" connect="1" arrows="1" fold="1" page="1" pageScale="1" pageWidth="1169" pageHeight="827" math="0" shadow="0">
      <root>
        <mxCell id="0" />
        <mxCell id="1" parent="0" />
        <mxCell id="c2hM36ZOYpo1LUVhgYwG-1" value="" style="shape=ellipse;fillColor=#0065FF;strokeColor=none;html=1;sketch=0;" vertex="1" parent="1">
          <mxGeometry x="834" y="30" width="10" height="10" as="geometry" />
        </mxCell>
        <mxCell id="c2hM36ZOYpo1LUVhgYwG-2" value="Master" style="swimlane;whiteSpace=wrap;html=1;startSize=23;" vertex="1" parent="1">
          <mxGeometry x="325" y="40" width="310" height="778" as="geometry" />
        </mxCell>
        <mxCell id="c2hM36ZOYpo1LUVhgYwG-3" style="rounded=0;orthogonalLoop=1;jettySize=auto;html=1;entryX=0.5;entryY=0;entryDx=0;entryDy=0;" edge="1" parent="c2hM36ZOYpo1LUVhgYwG-2" target="c2hM36ZOYpo1LUVhgYwG-5">
          <mxGeometry relative="1" as="geometry">
            <mxPoint x="505" y="158" as="targetPoint" />
            <mxPoint x="100" y="128" as="sourcePoint" />
          </mxGeometry>
        </mxCell>
        <mxCell id="c2hM36ZOYpo1LUVhgYwG-4" style="edgeStyle=orthogonalEdgeStyle;rounded=0;orthogonalLoop=1;jettySize=auto;html=1;exitX=0.5;exitY=1;exitDx=0;exitDy=0;entryX=0.5;entryY=0;entryDx=0;entryDy=0;" edge="1" parent="c2hM36ZOYpo1LUVhgYwG-2" source="c2hM36ZOYpo1LUVhgYwG-5" target="c2hM36ZOYpo1LUVhgYwG-8">
          <mxGeometry relative="1" as="geometry" />
        </mxCell>
        <mxCell id="c2hM36ZOYpo1LUVhgYwG-5" value="Dashboard master" style="rounded=0;whiteSpace=wrap;html=1;" vertex="1" parent="c2hM36ZOYpo1LUVhgYwG-2">
          <mxGeometry x="95" y="94" width="120" height="60" as="geometry" />
        </mxCell>
        <mxCell id="c2hM36ZOYpo1LUVhgYwG-6" style="edgeStyle=orthogonalEdgeStyle;rounded=0;orthogonalLoop=1;jettySize=auto;html=1;exitX=0.5;exitY=1;exitDx=0;exitDy=0;entryX=0.5;entryY=0;entryDx=0;entryDy=0;" edge="1" parent="c2hM36ZOYpo1LUVhgYwG-2" source="c2hM36ZOYpo1LUVhgYwG-8" target="c2hM36ZOYpo1LUVhgYwG-10">
          <mxGeometry relative="1" as="geometry" />
        </mxCell>
        <mxCell id="c2hM36ZOYpo1LUVhgYwG-7" style="edgeStyle=orthogonalEdgeStyle;rounded=0;orthogonalLoop=1;jettySize=auto;html=1;exitX=0.5;exitY=1;exitDx=0;exitDy=0;entryX=0.5;entryY=0;entryDx=0;entryDy=0;" edge="1" parent="c2hM36ZOYpo1LUVhgYwG-2" source="c2hM36ZOYpo1LUVhgYwG-8" target="c2hM36ZOYpo1LUVhgYwG-11">
          <mxGeometry relative="1" as="geometry" />
        </mxCell>
        <mxCell id="c2hM36ZOYpo1LUVhgYwG-8" value="Pilih jenis manajemen" style="rounded=0;whiteSpace=wrap;html=1;" vertex="1" parent="c2hM36ZOYpo1LUVhgYwG-2">
          <mxGeometry x="95" y="194" width="120" height="60" as="geometry" />
        </mxCell>
        <mxCell id="c2hM36ZOYpo1LUVhgYwG-9" style="edgeStyle=orthogonalEdgeStyle;rounded=0;orthogonalLoop=1;jettySize=auto;html=1;exitX=0.5;exitY=1;exitDx=0;exitDy=0;entryX=0.5;entryY=0;entryDx=0;entryDy=0;" edge="1" parent="c2hM36ZOYpo1LUVhgYwG-2" source="c2hM36ZOYpo1LUVhgYwG-10" target="c2hM36ZOYpo1LUVhgYwG-41">
          <mxGeometry relative="1" as="geometry">
            <mxPoint x="80" y="408" as="targetPoint" />
          </mxGeometry>
        </mxCell>
        <mxCell id="c2hM36ZOYpo1LUVhgYwG-10" value="Kehadiran dan Cuti" style="rounded=0;whiteSpace=wrap;html=1;" vertex="1" parent="c2hM36ZOYpo1LUVhgYwG-2">
          <mxGeometry x="20" y="292" width="120" height="60" as="geometry" />
        </mxCell>
        <mxCell id="c2hM36ZOYpo1LUVhgYwG-11" value="Kelola Divisi dan Admin" style="rounded=0;whiteSpace=wrap;html=1;" vertex="1" parent="c2hM36ZOYpo1LUVhgYwG-2">
          <mxGeometry x="170" y="292" width="120" height="60" as="geometry" />
        </mxCell>
        <mxCell id="c2hM36ZOYpo1LUVhgYwG-43" style="edgeStyle=orthogonalEdgeStyle;rounded=0;orthogonalLoop=1;jettySize=auto;html=1;exitX=0.5;exitY=1;exitDx=0;exitDy=0;entryX=0.5;entryY=0;entryDx=0;entryDy=0;" edge="1" parent="c2hM36ZOYpo1LUVhgYwG-2" source="c2hM36ZOYpo1LUVhgYwG-41" target="c2hM36ZOYpo1LUVhgYwG-35">
          <mxGeometry relative="1" as="geometry" />
        </mxCell>
        <mxCell id="c2hM36ZOYpo1LUVhgYwG-41" value="Pilih Bulan untuk Merekap Data" style="rounded=0;whiteSpace=wrap;html=1;" vertex="1" parent="c2hM36ZOYpo1LUVhgYwG-2">
          <mxGeometry x="20" y="410" width="120" height="60" as="geometry" />
        </mxCell>
        <mxCell id="c2hM36ZOYpo1LUVhgYwG-35" value="" style="ellipse;html=1;shape=endState;fillColor=#000000;strokeColor=#ff0000;" vertex="1" parent="c2hM36ZOYpo1LUVhgYwG-2">
          <mxGeometry x="65" y="721" width="30" height="30" as="geometry" />
        </mxCell>
        <mxCell id="c2hM36ZOYpo1LUVhgYwG-21" value="Sistem" style="swimlane;whiteSpace=wrap;html=1;startSize=23;" vertex="1" parent="1">
          <mxGeometry x="635" y="40" width="200" height="778" as="geometry" />
        </mxCell>
        <mxCell id="c2hM36ZOYpo1LUVhgYwG-22" value="Menampilkan data" style="rounded=0;whiteSpace=wrap;html=1;" vertex="1" parent="c2hM36ZOYpo1LUVhgYwG-21">
          <mxGeometry x="40" y="94" width="120" height="60" as="geometry" />
        </mxCell>
        <mxCell id="c2hM36ZOYpo1LUVhgYwG-23" style="edgeStyle=orthogonalEdgeStyle;rounded=0;orthogonalLoop=1;jettySize=auto;html=1;exitX=0.5;exitY=1;exitDx=0;exitDy=0;entryX=0.5;entryY=0;entryDx=0;entryDy=0;" edge="1" parent="c2hM36ZOYpo1LUVhgYwG-21" source="c2hM36ZOYpo1LUVhgYwG-24" target="c2hM36ZOYpo1LUVhgYwG-22">
          <mxGeometry relative="1" as="geometry" />
        </mxCell>
        <mxCell id="c2hM36ZOYpo1LUVhgYwG-24" value="" style="ellipse;html=1;shape=startState;fillColor=#000000;strokeColor=#ff0000;" vertex="1" parent="c2hM36ZOYpo1LUVhgYwG-21">
          <mxGeometry x="85" y="34" width="30" height="30" as="geometry" />
        </mxCell>
        <mxCell id="c2hM36ZOYpo1LUVhgYwG-25" value="Master" style="text;html=1;align=center;verticalAlign=middle;whiteSpace=wrap;rounded=0;" vertex="1" parent="1">
          <mxGeometry x="507" y="10" width="128" height="30" as="geometry" />
        </mxCell>
        <mxCell id="c2hM36ZOYpo1LUVhgYwG-26" style="edgeStyle=orthogonalEdgeStyle;rounded=0;orthogonalLoop=1;jettySize=auto;html=1;exitX=0;exitY=0.5;exitDx=0;exitDy=0;entryX=1;entryY=0.5;entryDx=0;entryDy=0;" edge="1" parent="1" source="c2hM36ZOYpo1LUVhgYwG-22" target="c2hM36ZOYpo1LUVhgYwG-5">
          <mxGeometry relative="1" as="geometry" />
        </mxCell>
        <mxCell id="c2hM36ZOYpo1LUVhgYwG-27" value="Yes" style="edgeStyle=orthogonalEdgeStyle;rounded=0;orthogonalLoop=1;jettySize=auto;html=1;exitX=1;exitY=0.5;exitDx=0;exitDy=0;entryX=1;entryY=0.5;entryDx=0;entryDy=0;" edge="1" parent="1" source="c2hM36ZOYpo1LUVhgYwG-28" target="c2hM36ZOYpo1LUVhgYwG-11">
          <mxGeometry relative="1" as="geometry" />
        </mxCell>
        <mxCell id="c2hM36ZOYpo1LUVhgYwG-28" value="Data yang dibutuhkan kurang?" style="rhombus;whiteSpace=wrap;html=1;" vertex="1" parent="1">
          <mxGeometry x="695" y="447" width="80" height="80" as="geometry" />
        </mxCell>
        <mxCell id="c2hM36ZOYpo1LUVhgYwG-29" value="Yes" style="edgeStyle=orthogonalEdgeStyle;rounded=0;orthogonalLoop=1;jettySize=auto;html=1;exitX=0.5;exitY=1;exitDx=0;exitDy=0;entryX=0.5;entryY=0;entryDx=0;entryDy=0;" edge="1" parent="1" source="c2hM36ZOYpo1LUVhgYwG-31" target="c2hM36ZOYpo1LUVhgYwG-34">
          <mxGeometry relative="1" as="geometry" />
        </mxCell>
        <mxCell id="c2hM36ZOYpo1LUVhgYwG-30" value="No" style="edgeStyle=orthogonalEdgeStyle;rounded=0;orthogonalLoop=1;jettySize=auto;html=1;exitX=0;exitY=0.5;exitDx=0;exitDy=0;entryX=1;entryY=0.5;entryDx=0;entryDy=0;" edge="1" parent="1" source="c2hM36ZOYpo1LUVhgYwG-31" target="c2hM36ZOYpo1LUVhgYwG-11">
          <mxGeometry relative="1" as="geometry" />
        </mxCell>
        <mxCell id="c2hM36ZOYpo1LUVhgYwG-31" value="Data valid?" style="rhombus;whiteSpace=wrap;html=1;" vertex="1" parent="1">
          <mxGeometry x="695" y="557" width="80" height="80" as="geometry" />
        </mxCell>
        <mxCell id="c2hM36ZOYpo1LUVhgYwG-32" value="No" style="edgeStyle=orthogonalEdgeStyle;rounded=0;orthogonalLoop=1;jettySize=auto;html=1;exitX=0.5;exitY=1;exitDx=0;exitDy=0;entryX=0.5;entryY=0;entryDx=0;entryDy=0;" edge="1" parent="1" source="c2hM36ZOYpo1LUVhgYwG-28" target="c2hM36ZOYpo1LUVhgYwG-31">
          <mxGeometry relative="1" as="geometry" />
        </mxCell>
        <mxCell id="c2hM36ZOYpo1LUVhgYwG-44" style="edgeStyle=orthogonalEdgeStyle;rounded=0;orthogonalLoop=1;jettySize=auto;html=1;exitX=0.5;exitY=1;exitDx=0;exitDy=0;entryX=1;entryY=0.5;entryDx=0;entryDy=0;" edge="1" parent="1" source="c2hM36ZOYpo1LUVhgYwG-34" target="c2hM36ZOYpo1LUVhgYwG-35">
          <mxGeometry relative="1" as="geometry" />
        </mxCell>
        <mxCell id="c2hM36ZOYpo1LUVhgYwG-34" value="Simpan data" style="rounded=0;whiteSpace=wrap;html=1;" vertex="1" parent="1">
          <mxGeometry x="675" y="681" width="120" height="60" as="geometry" />
        </mxCell>
        <mxCell id="c2hM36ZOYpo1LUVhgYwG-36" style="edgeStyle=orthogonalEdgeStyle;rounded=0;orthogonalLoop=1;jettySize=auto;html=1;exitX=0.5;exitY=1;exitDx=0;exitDy=0;entryX=0.5;entryY=0;entryDx=0;entryDy=0;" edge="1" parent="1" source="c2hM36ZOYpo1LUVhgYwG-11" target="c2hM36ZOYpo1LUVhgYwG-28">
          <mxGeometry relative="1" as="geometry" />
        </mxCell>
      </root>
    </mxGraphModel>
  </diagram>
  <diagram name="Login" id="3whUmSvMhyh-sEe3zOAG">
    <mxGraphModel dx="1985" dy="1230" grid="1" gridSize="10" guides="1" tooltips="1" connect="1" arrows="1" fold="1" page="1" pageScale="1" pageWidth="1169" pageHeight="827" background="#ffffff" math="0" shadow="0">
      <root>
        <mxCell id="0" />
        <mxCell id="1" parent="0" />
        <mxCell id="QMxyw_xBsR0rf_ZR0Ty5-3" value="" style="shape=ellipse;fillColor=#0065FF;strokeColor=none;html=1;sketch=0;" parent="1" vertex="1">
          <mxGeometry x="777" y="121" width="10" height="10" as="geometry" />
        </mxCell>
        <mxCell id="S9p_W8L4kDU-hchcXh-H-1" value="User" style="swimlane;whiteSpace=wrap;html=1;" parent="1" vertex="1">
          <mxGeometry x="383" y="131" width="200" height="576" as="geometry" />
        </mxCell>
        <mxCell id="R8g6mvwHmr_apK4L2kP_-6" style="edgeStyle=orthogonalEdgeStyle;rounded=0;orthogonalLoop=1;jettySize=auto;html=1;exitX=0.5;exitY=1;exitDx=0;exitDy=0;entryX=0.5;entryY=0;entryDx=0;entryDy=0;" parent="S9p_W8L4kDU-hchcXh-H-1" source="QMxyw_xBsR0rf_ZR0Ty5-11" target="S9p_W8L4kDU-hchcXh-H-10" edge="1">
          <mxGeometry relative="1" as="geometry" />
        </mxCell>
        <mxCell id="QMxyw_xBsR0rf_ZR0Ty5-11" value="Halaman login" style="rounded=0;whiteSpace=wrap;html=1;" parent="S9p_W8L4kDU-hchcXh-H-1" vertex="1">
          <mxGeometry x="40" y="182" width="120" height="60" as="geometry" />
        </mxCell>
        <mxCell id="S9p_W8L4kDU-hchcXh-H-10" value="Input username &amp;amp; password" style="rounded=0;whiteSpace=wrap;html=1;" parent="S9p_W8L4kDU-hchcXh-H-1" vertex="1">
          <mxGeometry x="40" y="272" width="120" height="60" as="geometry" />
        </mxCell>
        <mxCell id="R8g6mvwHmr_apK4L2kP_-4" style="edgeStyle=orthogonalEdgeStyle;rounded=0;orthogonalLoop=1;jettySize=auto;html=1;exitX=0.5;exitY=1;exitDx=0;exitDy=0;entryX=0.5;entryY=0;entryDx=0;entryDy=0;" parent="S9p_W8L4kDU-hchcXh-H-1" source="R8g6mvwHmr_apK4L2kP_-1" target="R8g6mvwHmr_apK4L2kP_-3" edge="1">
          <mxGeometry relative="1" as="geometry" />
        </mxCell>
        <mxCell id="R8g6mvwHmr_apK4L2kP_-1" value="" style="ellipse;html=1;shape=startState;fillColor=#000000;strokeColor=#ff0000;" parent="S9p_W8L4kDU-hchcXh-H-1" vertex="1">
          <mxGeometry x="85" y="32" width="30" height="30" as="geometry" />
        </mxCell>
        <mxCell id="R8g6mvwHmr_apK4L2kP_-5" style="edgeStyle=orthogonalEdgeStyle;rounded=0;orthogonalLoop=1;jettySize=auto;html=1;exitX=0.5;exitY=1;exitDx=0;exitDy=0;entryX=0.5;entryY=0;entryDx=0;entryDy=0;" parent="S9p_W8L4kDU-hchcXh-H-1" source="R8g6mvwHmr_apK4L2kP_-3" target="QMxyw_xBsR0rf_ZR0Ty5-11" edge="1">
          <mxGeometry relative="1" as="geometry" />
        </mxCell>
        <mxCell id="R8g6mvwHmr_apK4L2kP_-3" value="Halaman awal" style="rounded=0;whiteSpace=wrap;html=1;" parent="S9p_W8L4kDU-hchcXh-H-1" vertex="1">
          <mxGeometry x="40" y="92" width="120" height="60" as="geometry" />
        </mxCell>
        <mxCell id="R8g6mvwHmr_apK4L2kP_-10" style="edgeStyle=orthogonalEdgeStyle;rounded=0;orthogonalLoop=1;jettySize=auto;html=1;exitX=0.5;exitY=1;exitDx=0;exitDy=0;entryX=0.5;entryY=0;entryDx=0;entryDy=0;" parent="S9p_W8L4kDU-hchcXh-H-1" source="QMxyw_xBsR0rf_ZR0Ty5-22" target="QMxyw_xBsR0rf_ZR0Ty5-29" edge="1">
          <mxGeometry relative="1" as="geometry" />
        </mxCell>
        <mxCell id="QMxyw_xBsR0rf_ZR0Ty5-22" value="User dashboard" style="rounded=0;whiteSpace=wrap;html=1;" parent="S9p_W8L4kDU-hchcXh-H-1" vertex="1">
          <mxGeometry x="40" y="459" width="120" height="60" as="geometry" />
        </mxCell>
        <mxCell id="QMxyw_xBsR0rf_ZR0Ty5-29" value="" style="ellipse;html=1;shape=endState;fillColor=#000000;strokeColor=#ff0000;" parent="S9p_W8L4kDU-hchcXh-H-1" vertex="1">
          <mxGeometry x="89.5" y="542" width="21" height="20" as="geometry" />
        </mxCell>
        <mxCell id="S9p_W8L4kDU-hchcXh-H-2" value="Sistem" style="swimlane;whiteSpace=wrap;html=1;startSize=23;" parent="1" vertex="1">
          <mxGeometry x="583" y="131" width="200" height="576" as="geometry" />
        </mxCell>
        <mxCell id="QMxyw_xBsR0rf_ZR0Ty5-6" value="User valid?" style="rhombus;whiteSpace=wrap;html=1;" parent="S9p_W8L4kDU-hchcXh-H-2" vertex="1">
          <mxGeometry x="60" y="332" width="80" height="80" as="geometry" />
        </mxCell>
        <mxCell id="R8g6mvwHmr_apK4L2kP_-7" style="edgeStyle=orthogonalEdgeStyle;rounded=0;orthogonalLoop=1;jettySize=auto;html=1;exitX=0.5;exitY=1;exitDx=0;exitDy=0;entryX=0;entryY=0.5;entryDx=0;entryDy=0;" parent="1" source="S9p_W8L4kDU-hchcXh-H-10" target="QMxyw_xBsR0rf_ZR0Ty5-6" edge="1">
          <mxGeometry relative="1" as="geometry" />
        </mxCell>
        <mxCell id="R8g6mvwHmr_apK4L2kP_-8" value="No" style="edgeStyle=orthogonalEdgeStyle;rounded=0;orthogonalLoop=1;jettySize=auto;html=1;exitX=0.5;exitY=0;exitDx=0;exitDy=0;entryX=1;entryY=0.5;entryDx=0;entryDy=0;" parent="1" source="QMxyw_xBsR0rf_ZR0Ty5-6" target="QMxyw_xBsR0rf_ZR0Ty5-11" edge="1">
          <mxGeometry relative="1" as="geometry" />
        </mxCell>
        <mxCell id="R8g6mvwHmr_apK4L2kP_-9" value="Yes" style="edgeStyle=orthogonalEdgeStyle;rounded=0;orthogonalLoop=1;jettySize=auto;html=1;exitX=0.5;exitY=1;exitDx=0;exitDy=0;entryX=0.5;entryY=0;entryDx=0;entryDy=0;" parent="1" source="QMxyw_xBsR0rf_ZR0Ty5-6" target="QMxyw_xBsR0rf_ZR0Ty5-22" edge="1">
          <mxGeometry relative="1" as="geometry">
            <Array as="points">
              <mxPoint x="683" y="563" />
              <mxPoint x="483" y="563" />
            </Array>
          </mxGeometry>
        </mxCell>
      </root>
    </mxGraphModel>
  </diagram>
  <diagram id="Fb7nosNftDVFWxbt0DaZ" name="Logout">
    <mxGraphModel dx="611" dy="378" grid="1" gridSize="10" guides="1" tooltips="1" connect="1" arrows="1" fold="1" page="1" pageScale="1" pageWidth="1169" pageHeight="827" math="0" shadow="0">
      <root>
        <mxCell id="0" />
        <mxCell id="1" parent="0" />
        <mxCell id="20vfchTj9ZY9xTdE1iKK-2" value="" style="shape=ellipse;fillColor=#0065FF;strokeColor=none;html=1;sketch=0;" parent="1" vertex="1">
          <mxGeometry x="777" y="134" width="10" height="10" as="geometry" />
        </mxCell>
        <mxCell id="20vfchTj9ZY9xTdE1iKK-8" value="Sistem" style="swimlane;whiteSpace=wrap;html=1;startSize=23;" parent="1" vertex="1">
          <mxGeometry x="583" y="144" width="200" height="549" as="geometry" />
        </mxCell>
        <mxCell id="xETMKo6POC0lIRD_QeMw-8" value="Konfirmasi?" style="rhombus;whiteSpace=wrap;html=1;" parent="20vfchTj9ZY9xTdE1iKK-8" vertex="1">
          <mxGeometry x="61" y="289" width="80" height="80" as="geometry" />
        </mxCell>
        <mxCell id="xETMKo6POC0lIRD_QeMw-4" value="User" style="swimlane;whiteSpace=wrap;html=1;startSize=23;" parent="1" vertex="1">
          <mxGeometry x="383" y="144" width="200" height="549" as="geometry" />
        </mxCell>
        <mxCell id="xETMKo6POC0lIRD_QeMw-10" style="edgeStyle=orthogonalEdgeStyle;rounded=0;orthogonalLoop=1;jettySize=auto;html=1;exitX=0.5;exitY=1;exitDx=0;exitDy=0;entryX=0.5;entryY=0;entryDx=0;entryDy=0;" parent="xETMKo6POC0lIRD_QeMw-4" source="xETMKo6POC0lIRD_QeMw-5" target="xETMKo6POC0lIRD_QeMw-6" edge="1">
          <mxGeometry relative="1" as="geometry" />
        </mxCell>
        <mxCell id="xETMKo6POC0lIRD_QeMw-5" value="" style="ellipse;html=1;shape=startState;fillColor=#000000;strokeColor=#ff0000;" parent="xETMKo6POC0lIRD_QeMw-4" vertex="1">
          <mxGeometry x="85" y="39" width="30" height="30" as="geometry" />
        </mxCell>
        <mxCell id="xETMKo6POC0lIRD_QeMw-11" style="edgeStyle=orthogonalEdgeStyle;rounded=0;orthogonalLoop=1;jettySize=auto;html=1;exitX=0.5;exitY=1;exitDx=0;exitDy=0;entryX=0.5;entryY=0;entryDx=0;entryDy=0;" parent="xETMKo6POC0lIRD_QeMw-4" source="xETMKo6POC0lIRD_QeMw-6" target="xETMKo6POC0lIRD_QeMw-7" edge="1">
          <mxGeometry relative="1" as="geometry" />
        </mxCell>
        <mxCell id="xETMKo6POC0lIRD_QeMw-6" value="User dashboard" style="rounded=0;whiteSpace=wrap;html=1;" parent="xETMKo6POC0lIRD_QeMw-4" vertex="1">
          <mxGeometry x="40" y="99" width="120" height="60" as="geometry" />
        </mxCell>
        <mxCell id="xETMKo6POC0lIRD_QeMw-7" value="Tombol logout" style="rounded=0;whiteSpace=wrap;html=1;" parent="xETMKo6POC0lIRD_QeMw-4" vertex="1">
          <mxGeometry x="40" y="199" width="120" height="60" as="geometry" />
        </mxCell>
        <mxCell id="xETMKo6POC0lIRD_QeMw-18" style="edgeStyle=orthogonalEdgeStyle;rounded=0;orthogonalLoop=1;jettySize=auto;html=1;exitX=0.5;exitY=1;exitDx=0;exitDy=0;entryX=0.5;entryY=0;entryDx=0;entryDy=0;" parent="xETMKo6POC0lIRD_QeMw-4" source="xETMKo6POC0lIRD_QeMw-9" target="xETMKo6POC0lIRD_QeMw-17" edge="1">
          <mxGeometry relative="1" as="geometry" />
        </mxCell>
        <mxCell id="xETMKo6POC0lIRD_QeMw-9" value="Halaman awal" style="rounded=0;whiteSpace=wrap;html=1;" parent="xETMKo6POC0lIRD_QeMw-4" vertex="1">
          <mxGeometry x="40" y="406" width="120" height="60" as="geometry" />
        </mxCell>
        <mxCell id="xETMKo6POC0lIRD_QeMw-17" value="" style="ellipse;html=1;shape=endState;fillColor=#000000;strokeColor=#ff0000;" parent="xETMKo6POC0lIRD_QeMw-4" vertex="1">
          <mxGeometry x="85" y="489" width="30" height="30" as="geometry" />
        </mxCell>
        <mxCell id="xETMKo6POC0lIRD_QeMw-14" value="Yes" style="edgeStyle=orthogonalEdgeStyle;rounded=0;orthogonalLoop=1;jettySize=auto;html=1;exitX=0.5;exitY=1;exitDx=0;exitDy=0;entryX=0.5;entryY=0;entryDx=0;entryDy=0;" parent="1" source="xETMKo6POC0lIRD_QeMw-8" target="xETMKo6POC0lIRD_QeMw-9" edge="1">
          <mxGeometry relative="1" as="geometry">
            <Array as="points">
              <mxPoint x="684" y="523" />
              <mxPoint x="483" y="523" />
            </Array>
          </mxGeometry>
        </mxCell>
        <mxCell id="xETMKo6POC0lIRD_QeMw-15" style="edgeStyle=orthogonalEdgeStyle;rounded=0;orthogonalLoop=1;jettySize=auto;html=1;exitX=0.5;exitY=1;exitDx=0;exitDy=0;entryX=0;entryY=0.5;entryDx=0;entryDy=0;" parent="1" source="xETMKo6POC0lIRD_QeMw-7" target="xETMKo6POC0lIRD_QeMw-8" edge="1">
          <mxGeometry relative="1" as="geometry" />
        </mxCell>
        <mxCell id="xETMKo6POC0lIRD_QeMw-16" value="No" style="edgeStyle=orthogonalEdgeStyle;rounded=0;orthogonalLoop=1;jettySize=auto;html=1;exitX=0.5;exitY=0;exitDx=0;exitDy=0;entryX=1;entryY=0.5;entryDx=0;entryDy=0;" parent="1" source="xETMKo6POC0lIRD_QeMw-8" target="xETMKo6POC0lIRD_QeMw-6" edge="1">
          <mxGeometry relative="1" as="geometry" />
        </mxCell>
      </root>
    </mxGraphModel>
  </diagram>
  <diagram id="2imzRPNPalkrGIl5tnoY" name="Print">
    <mxGraphModel dx="1114" dy="-168" grid="1" gridSize="10" guides="1" tooltips="1" connect="1" arrows="1" fold="1" page="1" pageScale="1" pageWidth="1169" pageHeight="827" math="0" shadow="0">
      <root>
        <mxCell id="0" />
        <mxCell id="1" parent="0" />
        <mxCell id="ITVXGgTJx9YYANdMjySq-1" value="Admin" style="swimlane;whiteSpace=wrap;html=1;startSize=23;" vertex="1" parent="1">
          <mxGeometry x="385" y="1038" width="200" height="434" as="geometry" />
        </mxCell>
        <mxCell id="ITVXGgTJx9YYANdMjySq-4" style="edgeStyle=orthogonalEdgeStyle;rounded=0;orthogonalLoop=1;jettySize=auto;html=1;exitX=0.5;exitY=1;exitDx=0;exitDy=0;entryX=0.5;entryY=0;entryDx=0;entryDy=0;" edge="1" parent="ITVXGgTJx9YYANdMjySq-1" source="ITVXGgTJx9YYANdMjySq-5" target="ITVXGgTJx9YYANdMjySq-7">
          <mxGeometry relative="1" as="geometry" />
        </mxCell>
        <mxCell id="ITVXGgTJx9YYANdMjySq-5" value="Dashboard admin" style="rounded=0;whiteSpace=wrap;html=1;" vertex="1" parent="ITVXGgTJx9YYANdMjySq-1">
          <mxGeometry x="40" y="104" width="120" height="60" as="geometry" />
        </mxCell>
        <mxCell id="ITVXGgTJx9YYANdMjySq-6" style="edgeStyle=orthogonalEdgeStyle;rounded=0;orthogonalLoop=1;jettySize=auto;html=1;exitX=0.5;exitY=1;exitDx=0;exitDy=0;entryX=0.5;entryY=0;entryDx=0;entryDy=0;" edge="1" parent="ITVXGgTJx9YYANdMjySq-1" source="ITVXGgTJx9YYANdMjySq-7" target="ITVXGgTJx9YYANdMjySq-9">
          <mxGeometry relative="1" as="geometry" />
        </mxCell>
        <mxCell id="ITVXGgTJx9YYANdMjySq-7" value="Pilih bulan" style="rounded=0;whiteSpace=wrap;html=1;" vertex="1" parent="ITVXGgTJx9YYANdMjySq-1">
          <mxGeometry x="40" y="194" width="120" height="60" as="geometry" />
        </mxCell>
        <mxCell id="ITVXGgTJx9YYANdMjySq-8" style="edgeStyle=orthogonalEdgeStyle;rounded=0;orthogonalLoop=1;jettySize=auto;html=1;exitX=0.5;exitY=1;exitDx=0;exitDy=0;entryX=0.5;entryY=0;entryDx=0;entryDy=0;" edge="1" parent="ITVXGgTJx9YYANdMjySq-1" source="ITVXGgTJx9YYANdMjySq-9" target="ITVXGgTJx9YYANdMjySq-10">
          <mxGeometry relative="1" as="geometry" />
        </mxCell>
        <mxCell id="ITVXGgTJx9YYANdMjySq-9" value="Tombol cetak" style="rounded=0;whiteSpace=wrap;html=1;" vertex="1" parent="ITVXGgTJx9YYANdMjySq-1">
          <mxGeometry x="40" y="284" width="120" height="56" as="geometry" />
        </mxCell>
        <mxCell id="ITVXGgTJx9YYANdMjySq-10" value="" style="ellipse;html=1;shape=endState;fillColor=#000000;strokeColor=#ff0000;" vertex="1" parent="ITVXGgTJx9YYANdMjySq-1">
          <mxGeometry x="85" y="374" width="30" height="30" as="geometry" />
        </mxCell>
        <mxCell id="ITVXGgTJx9YYANdMjySq-11" value="Print Data" style="text;html=1;align=center;verticalAlign=middle;whiteSpace=wrap;rounded=0;" vertex="1" parent="1">
          <mxGeometry x="550" y="1008" width="60" height="30" as="geometry" />
        </mxCell>
        <mxCell id="ITVXGgTJx9YYANdMjySq-12" value="Sistem" style="swimlane;whiteSpace=wrap;html=1;startSize=23;" vertex="1" parent="1">
          <mxGeometry x="584" y="1038" width="200" height="434" as="geometry" />
        </mxCell>
        <mxCell id="ITVXGgTJx9YYANdMjySq-13" value="Tampilkan data sesuai divisi admin" style="rounded=0;whiteSpace=wrap;html=1;" vertex="1" parent="ITVXGgTJx9YYANdMjySq-12">
          <mxGeometry x="40" y="104" width="120" height="60" as="geometry" />
        </mxCell>
        <mxCell id="ITVXGgTJx9YYANdMjySq-15" style="edgeStyle=orthogonalEdgeStyle;rounded=0;orthogonalLoop=1;jettySize=auto;html=1;exitX=0.5;exitY=1;exitDx=0;exitDy=0;entryX=0.5;entryY=0;entryDx=0;entryDy=0;" edge="1" parent="ITVXGgTJx9YYANdMjySq-12" source="ITVXGgTJx9YYANdMjySq-3" target="ITVXGgTJx9YYANdMjySq-13">
          <mxGeometry relative="1" as="geometry" />
        </mxCell>
        <mxCell id="ITVXGgTJx9YYANdMjySq-3" value="" style="ellipse;html=1;shape=startState;fillColor=#000000;strokeColor=#ff0000;" vertex="1" parent="ITVXGgTJx9YYANdMjySq-12">
          <mxGeometry x="85" y="32" width="30" height="30" as="geometry" />
        </mxCell>
        <mxCell id="ITVXGgTJx9YYANdMjySq-14" style="edgeStyle=orthogonalEdgeStyle;rounded=0;orthogonalLoop=1;jettySize=auto;html=1;exitX=0;exitY=0.5;exitDx=0;exitDy=0;entryX=1;entryY=0.5;entryDx=0;entryDy=0;" edge="1" parent="1" source="ITVXGgTJx9YYANdMjySq-13" target="ITVXGgTJx9YYANdMjySq-5">
          <mxGeometry relative="1" as="geometry" />
        </mxCell>
      </root>
    </mxGraphModel>
  </diagram>
  <diagram id="6gQc64ulGJ0AivD425Rk" name="Rekap">
    <mxGraphModel dx="768" dy="-373" grid="1" gridSize="10" guides="1" tooltips="1" connect="1" arrows="1" fold="1" page="1" pageScale="1" pageWidth="1169" pageHeight="827" math="0" shadow="0">
      <root>
        <mxCell id="0" />
        <mxCell id="1" parent="0" />
        <mxCell id="cfOmp6QsqBqVeWneF6QG-1" value="Master" style="swimlane;whiteSpace=wrap;html=1;startSize=23;" vertex="1" parent="1">
          <mxGeometry x="385" y="1038" width="200" height="434" as="geometry" />
        </mxCell>
        <mxCell id="cfOmp6QsqBqVeWneF6QG-4" style="edgeStyle=orthogonalEdgeStyle;rounded=0;orthogonalLoop=1;jettySize=auto;html=1;exitX=0.5;exitY=1;exitDx=0;exitDy=0;entryX=0.5;entryY=0;entryDx=0;entryDy=0;" edge="1" parent="cfOmp6QsqBqVeWneF6QG-1" source="cfOmp6QsqBqVeWneF6QG-5" target="cfOmp6QsqBqVeWneF6QG-7">
          <mxGeometry relative="1" as="geometry" />
        </mxCell>
        <mxCell id="cfOmp6QsqBqVeWneF6QG-5" value="Dashboard master" style="rounded=0;whiteSpace=wrap;html=1;" vertex="1" parent="cfOmp6QsqBqVeWneF6QG-1">
          <mxGeometry x="40" y="104" width="120" height="60" as="geometry" />
        </mxCell>
        <mxCell id="cfOmp6QsqBqVeWneF6QG-6" style="edgeStyle=orthogonalEdgeStyle;rounded=0;orthogonalLoop=1;jettySize=auto;html=1;exitX=0.5;exitY=1;exitDx=0;exitDy=0;entryX=0.5;entryY=0;entryDx=0;entryDy=0;" edge="1" parent="cfOmp6QsqBqVeWneF6QG-1" source="cfOmp6QsqBqVeWneF6QG-7" target="cfOmp6QsqBqVeWneF6QG-9">
          <mxGeometry relative="1" as="geometry" />
        </mxCell>
        <mxCell id="cfOmp6QsqBqVeWneF6QG-7" value="Pilih bulan" style="rounded=0;whiteSpace=wrap;html=1;" vertex="1" parent="cfOmp6QsqBqVeWneF6QG-1">
          <mxGeometry x="40" y="194" width="120" height="60" as="geometry" />
        </mxCell>
        <mxCell id="cfOmp6QsqBqVeWneF6QG-8" style="edgeStyle=orthogonalEdgeStyle;rounded=0;orthogonalLoop=1;jettySize=auto;html=1;exitX=0.5;exitY=1;exitDx=0;exitDy=0;entryX=0.5;entryY=0;entryDx=0;entryDy=0;" edge="1" parent="cfOmp6QsqBqVeWneF6QG-1" source="cfOmp6QsqBqVeWneF6QG-9" target="cfOmp6QsqBqVeWneF6QG-10">
          <mxGeometry relative="1" as="geometry" />
        </mxCell>
        <mxCell id="cfOmp6QsqBqVeWneF6QG-9" value="Tombol cetak" style="rounded=0;whiteSpace=wrap;html=1;" vertex="1" parent="cfOmp6QsqBqVeWneF6QG-1">
          <mxGeometry x="40" y="284" width="120" height="56" as="geometry" />
        </mxCell>
        <mxCell id="cfOmp6QsqBqVeWneF6QG-10" value="" style="ellipse;html=1;shape=endState;fillColor=#000000;strokeColor=#ff0000;" vertex="1" parent="cfOmp6QsqBqVeWneF6QG-1">
          <mxGeometry x="85" y="374" width="30" height="30" as="geometry" />
        </mxCell>
        <mxCell id="cfOmp6QsqBqVeWneF6QG-11" value="Recap Data" style="text;html=1;align=center;verticalAlign=middle;whiteSpace=wrap;rounded=0;" vertex="1" parent="1">
          <mxGeometry x="550" y="1008" width="70" height="30" as="geometry" />
        </mxCell>
        <mxCell id="cfOmp6QsqBqVeWneF6QG-12" value="Sistem" style="swimlane;whiteSpace=wrap;html=1;startSize=23;" vertex="1" parent="1">
          <mxGeometry x="584" y="1038" width="200" height="434" as="geometry" />
        </mxCell>
        <mxCell id="cfOmp6QsqBqVeWneF6QG-13" value="Tampilkan data kehadiran dan cuti pegawai dari semua divisi" style="rounded=0;whiteSpace=wrap;html=1;" vertex="1" parent="cfOmp6QsqBqVeWneF6QG-12">
          <mxGeometry x="40" y="104" width="120" height="60" as="geometry" />
        </mxCell>
        <mxCell id="cfOmp6QsqBqVeWneF6QG-15" style="edgeStyle=orthogonalEdgeStyle;rounded=0;orthogonalLoop=1;jettySize=auto;html=1;exitX=0.5;exitY=1;exitDx=0;exitDy=0;entryX=0.5;entryY=0;entryDx=0;entryDy=0;" edge="1" parent="cfOmp6QsqBqVeWneF6QG-12" source="cfOmp6QsqBqVeWneF6QG-3" target="cfOmp6QsqBqVeWneF6QG-13">
          <mxGeometry relative="1" as="geometry" />
        </mxCell>
        <mxCell id="cfOmp6QsqBqVeWneF6QG-3" value="" style="ellipse;html=1;shape=startState;fillColor=#000000;strokeColor=#ff0000;" vertex="1" parent="cfOmp6QsqBqVeWneF6QG-12">
          <mxGeometry x="85" y="42" width="30" height="30" as="geometry" />
        </mxCell>
        <mxCell id="cfOmp6QsqBqVeWneF6QG-14" style="edgeStyle=orthogonalEdgeStyle;rounded=0;orthogonalLoop=1;jettySize=auto;html=1;exitX=0;exitY=0.5;exitDx=0;exitDy=0;entryX=1;entryY=0.5;entryDx=0;entryDy=0;" edge="1" parent="1" source="cfOmp6QsqBqVeWneF6QG-13" target="cfOmp6QsqBqVeWneF6QG-5">
          <mxGeometry relative="1" as="geometry" />
        </mxCell>
      </root>
    </mxGraphModel>
  </diagram>
</mxfile>
